<?xml version="1.0" encoding="UTF-8" standalone="no"?>
<!-- Created with Inkscape (http://www.inkscape.org/) -->

<svg
   width="48"
   height="48"
   viewBox="0 0 48 48"
   version="1.1"
   id="svg1"
   xml:space="preserve"
   inkscape:version="1.3 (1:1.3+202307231459+0e150ed6c4)"
   sodipodi:docname="icon_vpn_err.svg"
   xmlns:inkscape="http://www.inkscape.org/namespaces/inkscape"
   xmlns:sodipodi="http://sodipodi.sourceforge.net/DTD/sodipodi-0.dtd"
   xmlns="http://www.w3.org/2000/svg"
   xmlns:svg="http://www.w3.org/2000/svg"><sodipodi:namedview
     id="namedview1"
     pagecolor="#ffffff"
     bordercolor="#666666"
     borderopacity="1.0"
     inkscape:showpageshadow="2"
     inkscape:pageopacity="0.0"
     inkscape:pagecheckerboard="0"
     inkscape:deskcolor="#d1d1d1"
     inkscape:document-units="px"
     inkscape:zoom="11.372634"
     inkscape:cx="-2.9456676"
     inkscape:cy="28.313581"
     inkscape:window-width="1920"
     inkscape:window-height="1011"
     inkscape:window-x="0"
     inkscape:window-y="32"
     inkscape:window-maximized="1"
     inkscape:current-layer="layer1" /><defs
     id="defs1" /><g
     inkscape:label="Layer 1"
     inkscape:groupmode="layer"
     id="layer1"><g
       transform="matrix(0.00486772,0,0,-0.00491014,-0.70592974,45.120905)"
       fill="#000000"
       stroke="none"
       id="g5"
       style="fill:#ff0202;fill-opacity:1"><path
         d="M 2563,8558 C 2537,8530 165,4423 136,4357 117,4312 117,4306 131,4267 147,4222 2531,88 2558,56 2601,8 2479,10 5061,10 c 2213,0 2424,1 2455,16 19,9 43,28 53,43 15,22 2294,3961 2390,4133 57,101 54,114 -98,377 -875,1521 -2285,3952 -2304,3974 l -25,27 H 5058 2583 Z M 8492,6330 C 9113,5255 9629,4359 9640,4339 l 19,-36 L 8511,2314 7363,325 5059,323 2755,321 1610,2306 C 980,3399 465,4298 465,4305 c 0,7 515,906 1145,1999 l 1145,1985 2304,-2 2304,-2 z"
         id="path1"
         style="fill:#ff0202;fill-opacity:1" /><path
         d="m 3548,6930 c -23,-13 -49,-40 -71,-77 -53,-89 -1412,-2444 -1431,-2480 -21,-41 -21,-95 0,-136 19,-36 1377,-2390 1429,-2477 22,-36 48,-64 73,-78 l 40,-22 h 1472 c 1465,0 1472,0 1509,20 20,12 45,35 57,53 11,18 345,595 742,1283 615,1065 722,1256 722,1289 0,33 -107,224 -722,1289 -397,688 -731,1265 -742,1283 -12,18 -37,41 -57,53 -37,20 -44,20 -1510,20 -1438,-1 -1475,-1 -1511,-20 z M 7078,5477 c 370,-640 672,-1167 672,-1172 0,-5 -302,-532 -672,-1172 l -672,-1163 -1349,2 -1348,3 -670,1160 c -368,638 -668,1167 -666,1176 3,10 1110,1938 1334,2322 2,4 611,7 1352,7 h 1347 z"
         id="path2"
         style="fill:#ff0202;fill-opacity:1" /><path
         d="m 3834,4626 c -8,-20 212,-627 233,-643 18,-14 207,-18 250,-7 25,7 18,-9 160,383 75,209 92,265 81,272 -7,5 -56,9 -109,9 -78,0 -101,-3 -117,-17 -13,-12 -38,-79 -72,-193 -29,-96 -55,-178 -59,-183 -4,-4 -33,77 -65,180 -31,103 -61,192 -67,198 -5,5 -59,12 -119,13 -93,3 -111,1 -116,-12 z"
         id="path3"
         style="fill:#ff0202;fill-opacity:1" /><path
         d="m 4742,4628 c -9,-12 -12,-90 -10,-329 l 3,-314 h 120 120 l 3,96 3,96 115,7 c 150,10 202,25 247,75 44,49 60,99 55,167 -7,79 -45,130 -131,173 l -68,34 -222,5 c -190,4 -224,2 -235,-10 z m 396,-174 c 26,-18 30,-65 6,-88 -11,-12 -36,-16 -90,-16 h -74 v 60 60 h 68 c 45,0 75,-5 90,-16 z"
         id="path4"
         style="fill:#ff0202;fill-opacity:1" /><path
         d="m 5512,4628 c -17,-17 -17,-629 0,-646 13,-13 175,-17 195,-4 9,5 13,51 15,147 l 3,140 112,-141 c 62,-78 120,-145 129,-148 29,-11 159,-7 172,6 17,17 17,629 0,646 -13,13 -163,17 -192,6 -14,-5 -16,-28 -16,-155 0,-82 -3,-149 -7,-149 -5,1 -53,64 -108,141 -55,78 -109,147 -120,155 -25,18 -166,19 -183,2 z"
         id="path5"
         style="fill:#ff0202;fill-opacity:1" /></g></g></svg>
