<?xml version="1.0" encoding="UTF-8" standalone="no"?>
<svg
   version="1.0"
   width="1011.000000pt"
   height="858.000000pt"
   viewBox="0 0 1011.000000 858.000000"
   preserveAspectRatio="xMidYMid meet"
   id="svg5"
   sodipodi:docname="vpn_on2.svg"
   inkscape:version="1.3 (1:1.3+202307231459+0e150ed6c4)"
   xmlns:inkscape="http://www.inkscape.org/namespaces/inkscape"
   xmlns:sodipodi="http://sodipodi.sourceforge.net/DTD/sodipodi-0.dtd"
   xmlns="http://www.w3.org/2000/svg"
   xmlns:svg="http://www.w3.org/2000/svg">
  <defs
     id="defs5" />
  <sodipodi:namedview
     id="namedview5"
     pagecolor="#ffffff"
     bordercolor="#666666"
     borderopacity="1.0"
     inkscape:showpageshadow="2"
     inkscape:pageopacity="0.0"
     inkscape:pagecheckerboard="0"
     inkscape:deskcolor="#d1d1d1"
     inkscape:document-units="pt"
     inkscape:zoom="0.67482517"
     inkscape:cx="673.50777"
     inkscape:cy="572"
     inkscape:window-width="1920"
     inkscape:window-height="1011"
     inkscape:window-x="0"
     inkscape:window-y="32"
     inkscape:window-maximized="1"
     inkscape:current-layer="svg5" />
  <g
     transform="translate(0.000000,858.000000) scale(0.100000,-0.100000)"
     fill="#000000"
     stroke="none"
     id="g5"
     style="fill:#022aff;fill-opacity:1">
    <path
       d="M2563 8558 c-26 -28 -2398 -4135 -2427 -4201 -19 -45 -19 -51 -5 -90 16 -45 2400 -4179 2427 -4211 43 -48 -79 -46 2503 -46 2213 0 2424 1 2455 16 19 9 43 28 53 43 15 22 2294 3961 2390 4133 57 101 54 114 -98 377 -875 1521 -2285 3952 -2304 3974 l-25 27 -2474 0 -2475 0 -20 -22z m5929 -2228 c621 -1075 1137 -1971 1148 -1991 l19 -36 -1148 -1989 -1148 -1989 -2304 -2 -2304 -2 -1145 1985 c-630 1093 -1145 1992 -1145 1999 0 7 515 906 1145 1999 l1145 1985 2304 -2 2304 -2 1129 -1955z"
       id="path1"
       style="fill:#022aff;fill-opacity:1" />
    <path
       d="M3548 6930 c-23 -13 -49 -40 -71 -77 -53 -89 -1412 -2444 -1431 -2480 -21 -41 -21 -95 0 -136 19 -36 1377 -2390 1429 -2477 22 -36 48 -64 73 -78 l40 -22 1472 0 c1465 0 1472 0 1509 20 20 12 45 35 57 53 11 18 345 595 742 1283 615 1065 722 1256 722 1289 0 33 -107 224 -722 1289 -397 688 -731 1265 -742 1283 -12 18 -37 41 -57 53 -37 20 -44 20 -1510 20 -1438 -1 -1475 -1 -1511 -20z m3530 -1453 c370 -640 672 -1167 672 -1172 0 -5 -302 -532 -672 -1172 l-672 -1163 -1349 2 -1348 3 -670 1160 c-368 638 -668 1167 -666 1176 3 10 1110 1938 1334 2322 2 4 611 7 1352 7 l1347 0 672 -1163z"
       id="path2"
       style="fill:#022aff;fill-opacity:1" />
    <path
       d="M3834 4626 c-8 -20 212 -627 233 -643 18 -14 207 -18 250 -7 25 7 18 -9 160 383 75 209 92 265 81 272 -7 5 -56 9 -109 9 -78 0 -101 -3 -117 -17 -13 -12 -38 -79 -72 -193 -29 -96 -55 -178 -59 -183 -4 -4 -33 77 -65 180 -31 103 -61 192 -67 198 -5 5 -59 12 -119 13 -93 3 -111 1 -116 -12z"
       id="path3"
       style="fill:#022aff;fill-opacity:1" />
    <path
       d="M4742 4628 c-9 -12 -12 -90 -10 -329 l3 -314 120 0 120 0 3 96 3 96 115 7 c150 10 202 25 247 75 44 49 60 99 55 167 -7 79 -45 130 -131 173 l-68 34 -222 5 c-190 4 -224 2 -235 -10z m396 -174 c26 -18 30 -65 6 -88 -11 -12 -36 -16 -90 -16 l-74 0 0 60 0 60 68 0 c45 0 75 -5 90 -16z"
       id="path4"
       style="fill:#022aff;fill-opacity:1" />
    <path
       d="M5512 4628 c-17 -17 -17 -629 0 -646 13 -13 175 -17 195 -4 9 5 13 51 15 147 l3 140 112 -141 c62 -78 120 -145 129 -148 29 -11 159 -7 172 6 17 17 17 629 0 646 -13 13 -163 17 -192 6 -14 -5 -16 -28 -16 -155 0 -82 -3 -149 -7 -149 -5 1 -53 64 -108 141 -55 78 -109 147 -120 155 -25 18 -166 19 -183 2z"
       id="path5"
       style="fill:#022aff;fill-opacity:1" />
  </g>
</svg>
